<mxfile host="app.diagrams.net" agent="Mozilla/5.0 (Macintosh; Intel Mac OS X 10_15_7) AppleWebKit/537.36 (KHTML, like Gecko) Chrome/136.0.0.0 Safari/537.36" version="27.0.9">
  <diagram id="C5RBs43oDa-KdzZeNtuy" name="Page-1">
    <mxGraphModel dx="1898" dy="1215" grid="1" gridSize="10" guides="1" tooltips="1" connect="1" arrows="1" fold="1" page="1" pageScale="1" pageWidth="827" pageHeight="1169" math="0" shadow="0">
      <root>
        <mxCell id="WIyWlLk6GJQsqaUBKTNV-0" />
        <mxCell id="WIyWlLk6GJQsqaUBKTNV-1" parent="WIyWlLk6GJQsqaUBKTNV-0" />
        <mxCell id="trNXK2y-bo38A_gwl3Vz-0" value="用户输入GitHub/GitLab/Bitbucket仓库" style="whiteSpace=wrap;strokeWidth=2;" vertex="1" parent="WIyWlLk6GJQsqaUBKTNV-1">
          <mxGeometry x="605" y="520" width="260" height="102" as="geometry" />
        </mxCell>
        <mxCell id="trNXK2y-bo38A_gwl3Vz-1" value="私有仓库?" style="rhombus;strokeWidth=2;whiteSpace=wrap;" vertex="1" parent="WIyWlLk6GJQsqaUBKTNV-1">
          <mxGeometry x="673" y="672" width="124" height="124" as="geometry" />
        </mxCell>
        <mxCell id="trNXK2y-bo38A_gwl3Vz-2" value="添加访问令牌" style="whiteSpace=wrap;strokeWidth=2;" vertex="1" parent="WIyWlLk6GJQsqaUBKTNV-1">
          <mxGeometry x="718" y="868" width="156" height="54" as="geometry" />
        </mxCell>
        <mxCell id="trNXK2y-bo38A_gwl3Vz-3" value="克隆仓库" style="whiteSpace=wrap;strokeWidth=2;" vertex="1" parent="WIyWlLk6GJQsqaUBKTNV-1">
          <mxGeometry x="673" y="972" width="124" height="54" as="geometry" />
        </mxCell>
        <mxCell id="trNXK2y-bo38A_gwl3Vz-4" value="分析代码结构" style="whiteSpace=wrap;strokeWidth=2;" vertex="1" parent="WIyWlLk6GJQsqaUBKTNV-1">
          <mxGeometry x="657" y="1076" width="156" height="54" as="geometry" />
        </mxCell>
        <mxCell id="trNXK2y-bo38A_gwl3Vz-5" value="创建代码嵌入" style="whiteSpace=wrap;strokeWidth=2;" vertex="1" parent="WIyWlLk6GJQsqaUBKTNV-1">
          <mxGeometry x="657" y="1180" width="156" height="54" as="geometry" />
        </mxCell>
        <mxCell id="trNXK2y-bo38A_gwl3Vz-6" value="选择模型提供商" style="rhombus;strokeWidth=2;whiteSpace=wrap;" vertex="1" parent="WIyWlLk6GJQsqaUBKTNV-1">
          <mxGeometry x="432" y="1284" width="166" height="166" as="geometry" />
        </mxCell>
        <mxCell id="trNXK2y-bo38A_gwl3Vz-7" value="使用Gemini生成" style="whiteSpace=wrap;strokeWidth=2;" vertex="1" parent="WIyWlLk6GJQsqaUBKTNV-1">
          <mxGeometry x="120" y="1523" width="175" height="54" as="geometry" />
        </mxCell>
        <mxCell id="trNXK2y-bo38A_gwl3Vz-8" value="使用OpenAI生成" style="whiteSpace=wrap;strokeWidth=2;" vertex="1" parent="WIyWlLk6GJQsqaUBKTNV-1">
          <mxGeometry x="345" y="1523" width="175" height="54" as="geometry" />
        </mxCell>
        <mxCell id="trNXK2y-bo38A_gwl3Vz-9" value="使用OpenRouter生成" style="whiteSpace=wrap;strokeWidth=2;" vertex="1" parent="WIyWlLk6GJQsqaUBKTNV-1">
          <mxGeometry x="570" y="1523" width="208" height="54" as="geometry" />
        </mxCell>
        <mxCell id="trNXK2y-bo38A_gwl3Vz-10" value="使用Ollama生成" style="whiteSpace=wrap;strokeWidth=2;" vertex="1" parent="WIyWlLk6GJQsqaUBKTNV-1">
          <mxGeometry x="828" y="1523" width="174" height="54" as="geometry" />
        </mxCell>
        <mxCell id="trNXK2y-bo38A_gwl3Vz-11" value="生成文档" style="whiteSpace=wrap;strokeWidth=2;" vertex="1" parent="WIyWlLk6GJQsqaUBKTNV-1">
          <mxGeometry x="491" y="1627" width="124" height="54" as="geometry" />
        </mxCell>
        <mxCell id="trNXK2y-bo38A_gwl3Vz-12" value="创建可视化图表" style="whiteSpace=wrap;strokeWidth=2;" vertex="1" parent="WIyWlLk6GJQsqaUBKTNV-1">
          <mxGeometry x="952" y="1627" width="172" height="54" as="geometry" />
        </mxCell>
        <mxCell id="trNXK2y-bo38A_gwl3Vz-13" value="组织为Wiki" style="whiteSpace=wrap;strokeWidth=2;" vertex="1" parent="WIyWlLk6GJQsqaUBKTNV-1">
          <mxGeometry x="666" y="1731" width="139" height="54" as="geometry" />
        </mxCell>
        <mxCell id="trNXK2y-bo38A_gwl3Vz-14" value="交互式DeepWiki" style="whiteSpace=wrap;strokeWidth=2;" vertex="1" parent="WIyWlLk6GJQsqaUBKTNV-1">
          <mxGeometry x="647" y="1835" width="175" height="54" as="geometry" />
        </mxCell>
        <mxCell id="trNXK2y-bo38A_gwl3Vz-15" value="" style="curved=1;startArrow=none;endArrow=block;exitX=0.5;exitY=1;entryX=0.5;entryY=0;rounded=0;" edge="1" parent="WIyWlLk6GJQsqaUBKTNV-1" source="trNXK2y-bo38A_gwl3Vz-0" target="trNXK2y-bo38A_gwl3Vz-1">
          <mxGeometry relative="1" as="geometry">
            <Array as="points" />
          </mxGeometry>
        </mxCell>
        <mxCell id="trNXK2y-bo38A_gwl3Vz-16" value="是" style="curved=1;startArrow=none;endArrow=block;exitX=0.81;exitY=1;entryX=0.5;entryY=0.01;rounded=0;" edge="1" parent="WIyWlLk6GJQsqaUBKTNV-1" source="trNXK2y-bo38A_gwl3Vz-1" target="trNXK2y-bo38A_gwl3Vz-2">
          <mxGeometry relative="1" as="geometry">
            <Array as="points">
              <mxPoint x="796" y="832" />
            </Array>
          </mxGeometry>
        </mxCell>
        <mxCell id="trNXK2y-bo38A_gwl3Vz-17" value="否" style="curved=1;startArrow=none;endArrow=block;exitX=0.19;exitY=1;entryX=0.24;entryY=0.01;rounded=0;" edge="1" parent="WIyWlLk6GJQsqaUBKTNV-1" source="trNXK2y-bo38A_gwl3Vz-1" target="trNXK2y-bo38A_gwl3Vz-3">
          <mxGeometry relative="1" as="geometry">
            <Array as="points">
              <mxPoint x="673" y="832" />
              <mxPoint x="673" y="947" />
            </Array>
          </mxGeometry>
        </mxCell>
        <mxCell id="trNXK2y-bo38A_gwl3Vz-18" value="" style="curved=1;startArrow=none;endArrow=block;exitX=0.5;exitY=1.01;entryX=0.76;entryY=0.01;rounded=0;" edge="1" parent="WIyWlLk6GJQsqaUBKTNV-1" source="trNXK2y-bo38A_gwl3Vz-2" target="trNXK2y-bo38A_gwl3Vz-3">
          <mxGeometry relative="1" as="geometry">
            <Array as="points">
              <mxPoint x="796" y="947" />
            </Array>
          </mxGeometry>
        </mxCell>
        <mxCell id="trNXK2y-bo38A_gwl3Vz-19" value="" style="curved=1;startArrow=none;endArrow=block;exitX=0.5;exitY=1.01;entryX=0.5;entryY=0.01;rounded=0;" edge="1" parent="WIyWlLk6GJQsqaUBKTNV-1" source="trNXK2y-bo38A_gwl3Vz-3" target="trNXK2y-bo38A_gwl3Vz-4">
          <mxGeometry relative="1" as="geometry">
            <Array as="points" />
          </mxGeometry>
        </mxCell>
        <mxCell id="trNXK2y-bo38A_gwl3Vz-20" value="" style="curved=1;startArrow=none;endArrow=block;exitX=0.5;exitY=1.01;entryX=0.5;entryY=0.01;rounded=0;" edge="1" parent="WIyWlLk6GJQsqaUBKTNV-1" source="trNXK2y-bo38A_gwl3Vz-4" target="trNXK2y-bo38A_gwl3Vz-5">
          <mxGeometry relative="1" as="geometry">
            <Array as="points" />
          </mxGeometry>
        </mxCell>
        <mxCell id="trNXK2y-bo38A_gwl3Vz-21" value="" style="curved=1;startArrow=none;endArrow=block;exitX=0;exitY=0.85;entryX=0.5;entryY=0;rounded=0;" edge="1" parent="WIyWlLk6GJQsqaUBKTNV-1" source="trNXK2y-bo38A_gwl3Vz-5" target="trNXK2y-bo38A_gwl3Vz-6">
          <mxGeometry relative="1" as="geometry">
            <Array as="points">
              <mxPoint x="515" y="1259" />
            </Array>
          </mxGeometry>
        </mxCell>
        <mxCell id="trNXK2y-bo38A_gwl3Vz-22" value="Google Gemini" style="curved=1;startArrow=none;endArrow=block;exitX=0;exitY=0.7;entryX=0.5;entryY=0;rounded=0;" edge="1" parent="WIyWlLk6GJQsqaUBKTNV-1" source="trNXK2y-bo38A_gwl3Vz-6" target="trNXK2y-bo38A_gwl3Vz-7">
          <mxGeometry relative="1" as="geometry">
            <Array as="points">
              <mxPoint x="207" y="1487" />
            </Array>
          </mxGeometry>
        </mxCell>
        <mxCell id="trNXK2y-bo38A_gwl3Vz-23" value="OpenAI" style="curved=1;startArrow=none;endArrow=block;exitX=0.15;exitY=1;entryX=0.5;entryY=0;rounded=0;" edge="1" parent="WIyWlLk6GJQsqaUBKTNV-1" source="trNXK2y-bo38A_gwl3Vz-6" target="trNXK2y-bo38A_gwl3Vz-8">
          <mxGeometry relative="1" as="geometry">
            <Array as="points">
              <mxPoint x="432" y="1487" />
            </Array>
          </mxGeometry>
        </mxCell>
        <mxCell id="trNXK2y-bo38A_gwl3Vz-24" value="OpenRouter" style="curved=1;startArrow=none;endArrow=block;exitX=1;exitY=0.88;entryX=0.5;entryY=0;rounded=0;" edge="1" parent="WIyWlLk6GJQsqaUBKTNV-1" source="trNXK2y-bo38A_gwl3Vz-6" target="trNXK2y-bo38A_gwl3Vz-9">
          <mxGeometry relative="1" as="geometry">
            <Array as="points">
              <mxPoint x="674" y="1487" />
            </Array>
          </mxGeometry>
        </mxCell>
        <mxCell id="trNXK2y-bo38A_gwl3Vz-25" value="本地Ollama" style="curved=1;startArrow=none;endArrow=block;exitX=1;exitY=0.65;entryX=0.5;entryY=0;rounded=0;" edge="1" parent="WIyWlLk6GJQsqaUBKTNV-1" source="trNXK2y-bo38A_gwl3Vz-6" target="trNXK2y-bo38A_gwl3Vz-10">
          <mxGeometry relative="1" as="geometry">
            <Array as="points">
              <mxPoint x="915" y="1487" />
            </Array>
          </mxGeometry>
        </mxCell>
        <mxCell id="trNXK2y-bo38A_gwl3Vz-26" value="" style="curved=1;startArrow=none;endArrow=block;exitX=0.5;exitY=1;entryX=0;entryY=0.33;rounded=0;" edge="1" parent="WIyWlLk6GJQsqaUBKTNV-1" source="trNXK2y-bo38A_gwl3Vz-7" target="trNXK2y-bo38A_gwl3Vz-11">
          <mxGeometry relative="1" as="geometry">
            <Array as="points">
              <mxPoint x="207" y="1602" />
            </Array>
          </mxGeometry>
        </mxCell>
        <mxCell id="trNXK2y-bo38A_gwl3Vz-27" value="" style="curved=1;startArrow=none;endArrow=block;exitX=0.5;exitY=1;entryX=0;entryY=0;rounded=0;" edge="1" parent="WIyWlLk6GJQsqaUBKTNV-1" source="trNXK2y-bo38A_gwl3Vz-8" target="trNXK2y-bo38A_gwl3Vz-11">
          <mxGeometry relative="1" as="geometry">
            <Array as="points">
              <mxPoint x="432" y="1602" />
            </Array>
          </mxGeometry>
        </mxCell>
        <mxCell id="trNXK2y-bo38A_gwl3Vz-28" value="" style="curved=1;startArrow=none;endArrow=block;exitX=0.5;exitY=1;entryX=1;entryY=0;rounded=0;" edge="1" parent="WIyWlLk6GJQsqaUBKTNV-1" source="trNXK2y-bo38A_gwl3Vz-9" target="trNXK2y-bo38A_gwl3Vz-11">
          <mxGeometry relative="1" as="geometry">
            <Array as="points">
              <mxPoint x="674" y="1602" />
            </Array>
          </mxGeometry>
        </mxCell>
        <mxCell id="trNXK2y-bo38A_gwl3Vz-29" value="" style="curved=1;startArrow=none;endArrow=block;exitX=0.5;exitY=1;entryX=1;entryY=0.33;rounded=0;" edge="1" parent="WIyWlLk6GJQsqaUBKTNV-1" source="trNXK2y-bo38A_gwl3Vz-10" target="trNXK2y-bo38A_gwl3Vz-11">
          <mxGeometry relative="1" as="geometry">
            <Array as="points">
              <mxPoint x="915" y="1602" />
            </Array>
          </mxGeometry>
        </mxCell>
        <mxCell id="trNXK2y-bo38A_gwl3Vz-30" value="" style="curved=1;startArrow=none;endArrow=block;exitX=1;exitY=0.76;entryX=0.5;entryY=0;rounded=0;" edge="1" parent="WIyWlLk6GJQsqaUBKTNV-1" source="trNXK2y-bo38A_gwl3Vz-5" target="trNXK2y-bo38A_gwl3Vz-12">
          <mxGeometry relative="1" as="geometry">
            <Array as="points">
              <mxPoint x="1038" y="1259" />
            </Array>
          </mxGeometry>
        </mxCell>
        <mxCell id="trNXK2y-bo38A_gwl3Vz-31" value="" style="curved=1;startArrow=none;endArrow=block;exitX=0.5;exitY=1;entryX=0;entryY=0.13;rounded=0;" edge="1" parent="WIyWlLk6GJQsqaUBKTNV-1" source="trNXK2y-bo38A_gwl3Vz-11" target="trNXK2y-bo38A_gwl3Vz-13">
          <mxGeometry relative="1" as="geometry">
            <Array as="points">
              <mxPoint x="553" y="1706" />
            </Array>
          </mxGeometry>
        </mxCell>
        <mxCell id="trNXK2y-bo38A_gwl3Vz-32" value="" style="curved=1;startArrow=none;endArrow=block;exitX=0.5;exitY=1;entryX=0.99;entryY=0.28;rounded=0;" edge="1" parent="WIyWlLk6GJQsqaUBKTNV-1" source="trNXK2y-bo38A_gwl3Vz-12" target="trNXK2y-bo38A_gwl3Vz-13">
          <mxGeometry relative="1" as="geometry">
            <Array as="points">
              <mxPoint x="1038" y="1706" />
            </Array>
          </mxGeometry>
        </mxCell>
        <mxCell id="trNXK2y-bo38A_gwl3Vz-33" value="" style="curved=1;startArrow=none;endArrow=block;exitX=0.5;exitY=1;entryX=0.5;entryY=0;rounded=0;" edge="1" parent="WIyWlLk6GJQsqaUBKTNV-1" source="trNXK2y-bo38A_gwl3Vz-13" target="trNXK2y-bo38A_gwl3Vz-14">
          <mxGeometry relative="1" as="geometry">
            <Array as="points" />
          </mxGeometry>
        </mxCell>
      </root>
    </mxGraphModel>
  </diagram>
</mxfile>
